<?xml version="1.0" encoding="UTF-8" standalone="no"?>
<svg
   xmlns:dc="http://purl.org/dc/elements/1.1/"
   xmlns:cc="http://creativecommons.org/ns#"
   xmlns:rdf="http://www.w3.org/1999/02/22-rdf-syntax-ns#"
   xmlns:svg="http://www.w3.org/2000/svg"
   xmlns="http://www.w3.org/2000/svg"
   xmlns:sodipodi="http://sodipodi.sourceforge.net/DTD/sodipodi-0.dtd"
   xmlns:inkscape="http://www.inkscape.org/namespaces/inkscape"
   inkscape:version="1.0 (4035a4fb49, 2020-05-01)"
   sodipodi:docname="25665_on.svg"
   xml:space="preserve"
   style="enable-background:new 0 0 438.277 438.277;"
   viewBox="0 0 438.277 438.277"
   height="438.277px"
   width="438.277px"
   y="0px"
   x="0px"
   id="Capa_1"
   version="1.1"><metadata
   id="metadata41"><rdf:RDF><cc:Work
       rdf:about=""><dc:format>image/svg+xml</dc:format><dc:type
         rdf:resource="http://purl.org/dc/dcmitype/StillImage" /><dc:title></dc:title></cc:Work></rdf:RDF></metadata><defs
   id="defs39" /><sodipodi:namedview
   inkscape:current-layer="Capa_1"
   inkscape:window-maximized="1"
   inkscape:window-y="0"
   inkscape:window-x="0"
   inkscape:cy="219.1385"
   inkscape:cx="219.1385"
   inkscape:zoom="1.937131"
   showgrid="false"
   id="namedview37"
   inkscape:window-height="1011"
   inkscape:window-width="1920"
   inkscape:pageshadow="2"
   inkscape:pageopacity="0"
   guidetolerance="10"
   gridtolerance="10"
   objecttolerance="10"
   borderopacity="1"
   bordercolor="#666666"
   pagecolor="#ffffff" />
<g
   id="g4">
	<path
   id="path2"
   d="M428.756,300.104c-0.664-3.81-2.334-7.047-4.996-9.713c-5.9-5.903-12.752-7.142-20.554-3.716   c-20.937,9.708-42.641,14.558-65.097,14.558c-28.171,0-54.152-6.94-77.943-20.838c-23.791-13.894-42.631-32.736-56.525-56.53   c-13.899-23.793-20.844-49.773-20.844-77.945c0-21.888,4.333-42.683,12.991-62.384c8.66-19.7,21.176-36.973,37.543-51.82   c6.283-5.898,7.713-12.752,4.287-20.557c-3.236-7.801-9.041-11.511-17.415-11.132c-29.121,1.141-56.72,7.664-82.797,19.556   C111.33,31.478,88.917,47.13,70.168,66.548c-18.747,19.414-33.595,42.399-44.54,68.95c-10.942,26.553-16.416,54.39-16.416,83.511   c0,29.694,5.806,58.054,17.416,85.082c11.613,27.028,27.218,50.344,46.824,69.949c19.604,19.599,42.92,35.207,69.951,46.822   c27.028,11.607,55.384,17.415,85.075,17.415c42.64,0,81.987-11.563,118.054-34.69c36.069-23.124,63.05-54.006,80.944-92.645   C429,307.519,429.427,303.906,428.756,300.104z M306.565,384.168c-24.646,11.711-50.676,17.562-78.087,17.562   c-24.743,0-48.39-4.853-70.947-14.558c-22.554-9.705-41.971-22.695-58.246-38.972c-16.271-16.272-29.259-35.686-38.97-58.241   c-9.707-22.556-14.561-46.203-14.561-70.948c0-40.922,12.135-77.466,36.403-109.636c24.266-32.165,55.531-53.959,93.788-65.379   c-19.795,31.405-29.694,65.379-29.694,101.926c0,34.644,8.564,66.715,25.697,96.223c17.128,29.499,40.446,52.811,69.95,69.948   c29.499,17.129,61.565,25.694,96.211,25.694c10.656,0,21.129-0.855,31.408-2.57C352.199,356.155,331.21,372.472,306.565,384.168z" />
</g>
<g
   id="g6">
</g>
<g
   id="g8">
</g>
<g
   id="g10">
</g>
<g
   id="g12">
</g>
<g
   id="g14">
</g>
<g
   id="g16">
</g>
<g
   id="g18">
</g>
<g
   id="g20">
</g>
<g
   id="g22">
</g>
<g
   id="g24">
</g>
<g
   id="g26">
</g>
<g
   id="g28">
</g>
<g
   id="g30">
</g>
<g
   id="g32">
</g>
<g
   id="g34">
</g>
<path
   id="path43"
   d="M 212.16943,400.81442 C 173.87549,397.25778 135.61894,380.42467 106.07439,354.13195 76.496674,327.80973 54.657952,287.56706 48.339077,247.7419 46.744345,237.69099 46.204963,230.29747 46.214702,218.62228 46.247525,179.27273 57.203964,144.84271 79.695518,113.41062 100.02393,85.001533 126.05338,64.097551 157.50309,50.92416 c 4.98594,-2.088471 16.62811,-6.270495 17.45617,-6.270495 0.11048,0 -0.94908,1.913349 -2.35458,4.251886 -7.71333,12.833775 -14.94893,29.506131 -19.21416,44.273483 -11.86812,41.090526 -9.16568,88.492756 7.23398,126.888146 18.06995,42.3059 48.69452,75.51203 89.1185,96.63093 19.8131,10.35107 40.36759,16.72761 64.38133,19.97278 9.7978,1.32405 38.05976,1.32818 47.43525,0.007 3.51734,-0.49569 6.48933,-0.80708 6.60442,-0.69199 0.38106,0.38105 -9.44268,10.91468 -15.13962,16.23366 -13.08649,12.21826 -26.55086,21.53548 -43.09515,29.82144 -19.15808,9.59502 -36.96163,15.06414 -58.78463,18.05821 -7.11566,0.97625 -31.37227,1.42141 -38.97517,0.71528 z"
   style="fill:#ffffff;stroke-width:0.516227" /><path
   id="path63"
   d="M 212.16943,400.81442 C 174.03896,397.27296 136.22293,380.71244 106.55031,354.56133 77.543069,328.99663 55.822236,289.90125 48.806656,250.62837 45.336245,231.20118 45.323982,206.38755 48.774977,186.52752 54.541298,153.34308 69.383015,123.34943 93.437148,96.269651 112.62329,74.670184 138.58793,57.355766 166.89026,47.287724 c 9.22186,-3.28051 8.81259,-3.477297 5.24919,2.523893 -11.43505,19.258009 -19.68405,41.798534 -23.42768,64.016513 -3.54277,21.02584 -3.45312,45.05877 0.24757,66.37044 8.36049,48.14664 37.04533,93.55281 76.99024,121.87036 29.38821,20.83375 60.87398,32.37866 96.35389,35.33017 9.35209,0.77798 31.63243,0.32567 39.77076,-0.80739 3.23256,-0.45005 5.97225,-0.7234 6.08821,-0.60745 0.38235,0.38236 -9.4299,10.90578 -15.13806,16.23524 -12.23334,11.42171 -26.3239,21.28313 -41.24301,28.86434 -20.57625,10.4559 -37.94171,15.90159 -60.63677,19.0153 -7.11566,0.97625 -31.37227,1.42141 -38.97517,0.71528 z"
   style="fill:#000000;stroke-width:0.516227" /><path
   id="path65"
   d="M 212.43755,437.45779 C 183.69241,435.25745 155.86688,427.38033 129.64814,414.02097 94.887153,396.30904 68.014898,372.56016 46.987623,340.96816 26.959895,310.8779 15.085816,278.74852 10.738939,242.88496 9.4423596,232.18764 9.458905,205.47488 10.768835,194.61771 14.117488,166.86285 21.751352,141.98952 34.534104,117.18361 58.03493,71.578446 94.545978,38.182192 143.99436,17.06151 166.4035,7.4899847 196.60493,0.82602765 218.62228,0.59482868 c 7.22459,-0.0758637 7.58744,-0.0284369 10.41829,1.36171702 3.42378,1.6813269 5.53426,3.9089351 7.58237,8.003178 2.96254,5.9221983 3.24907,10.6034713 0.9531,15.5715503 -0.70616,1.527997 -3.81798,5.132755 -8.93168,10.346526 -8.60901,8.777477 -10.58927,10.999149 -15.18403,17.035068 -8.21914,10.797107 -16.72549,26.351129 -21.45657,39.233711 -13.09283,35.651401 -12.51063,76.652881 1.58759,111.805261 4.64544,11.58292 10.45878,22.08742 18.33101,33.12347 23.75114,33.29669 61.21956,56.30375 101.99198,62.62701 10.07874,1.56307 31.06258,1.97072 41.1749,0.7999 16.4109,-1.90009 28.49764,-5.21905 47.05185,-12.92021 4.65308,-1.93132 6.25763,-2.35779 8.88556,-2.36167 6.63905,-0.01 12.62512,3.86903 15.7421,10.20051 1.54577,3.13992 1.69994,3.88005 1.69994,8.16135 v 4.70828 l -4.23172,8.46637 c -25.21772,50.45291 -67.75948,88.27367 -121.98586,108.4487 -26.53042,9.87069 -60.45918,14.49921 -89.81356,12.25224 z m 38.70705,-36.83427 c 20.93179,-2.72189 38.97388,-8.18157 58.07557,-17.57417 16.42794,-8.07786 30.043,-17.35565 43.31973,-29.5196 6.11426,-5.6018 17.7578,-18.02753 17.28085,-18.44173 -0.11109,-0.0965 -2.23253,0.12722 -4.71431,0.49708 -18.05412,2.69065 -43.40484,2.22939 -61.82288,-1.12488 -25.90187,-4.71722 -50.13713,-14.73306 -73.04617,-30.18821 -37.4638,-25.27424 -65.21515,-64.17467 -77.12197,-108.10562 -4.42455,-16.32466 -6.39312,-31.49082 -6.4326,-49.55783 -0.0464,-21.20993 2.6937,-39.36759 8.80275,-58.333686 4.37731,-13.589725 11.71449,-29.541692 18.83921,-40.958852 1.12379,-1.800841 1.94668,-3.370836 1.82864,-3.488879 -0.30151,-0.301506 -14.1498,4.480165 -19.73654,6.81482 -7.02316,2.934923 -19.41922,9.395333 -26.01199,13.556574 -28.01567,17.682981 -51.641437,44.153083 -66.643365,74.666613 -8.864992,18.03117 -13.97846,35.0594 -16.819646,56.01067 -1.261729,9.30416 -1.554376,32.52928 -0.531187,42.15629 1.478065,13.90687 3.690186,24.58657 7.585362,36.62068 17.109724,52.86039 53.788256,92.93521 104.539486,114.21943 18.29846,7.67407 33.8916,11.43939 56.73126,13.69907 5.05469,0.50009 29.76291,-0.15261 35.8778,-0.94777 z"
   style="fill:#ffffff;stroke-width:0.516227" /></svg>
