<?xml version="1.0" encoding="UTF-8" standalone="no"?>
<svg
   xmlns:dc="http://purl.org/dc/elements/1.1/"
   xmlns:cc="http://creativecommons.org/ns#"
   xmlns:rdf="http://www.w3.org/1999/02/22-rdf-syntax-ns#"
   xmlns:svg="http://www.w3.org/2000/svg"
   xmlns="http://www.w3.org/2000/svg"
   xmlns:sodipodi="http://sodipodi.sourceforge.net/DTD/sodipodi-0.dtd"
   xmlns:inkscape="http://www.inkscape.org/namespaces/inkscape"
   inkscape:version="1.0 (4035a4fb49, 2020-05-01)"
   sodipodi:docname="25665_off.svg"
   xml:space="preserve"
   style="enable-background:new 0 0 438.277 438.277;"
   viewBox="0 0 438.277 438.277"
   height="438.277px"
   width="438.277px"
   y="0px"
   x="0px"
   id="Capa_1"
   version="1.1"><metadata
   id="metadata41"><rdf:RDF><cc:Work
       rdf:about=""><dc:format>image/svg+xml</dc:format><dc:type
         rdf:resource="http://purl.org/dc/dcmitype/StillImage" /><dc:title></dc:title></cc:Work></rdf:RDF></metadata><defs
   id="defs39" /><sodipodi:namedview
   inkscape:current-layer="Capa_1"
   inkscape:window-maximized="1"
   inkscape:window-y="0"
   inkscape:window-x="0"
   inkscape:cy="219.1385"
   inkscape:cx="219.1385"
   inkscape:zoom="1.937131"
   showgrid="false"
   id="namedview37"
   inkscape:window-height="1011"
   inkscape:window-width="1920"
   inkscape:pageshadow="2"
   inkscape:pageopacity="0"
   guidetolerance="10"
   gridtolerance="10"
   objecttolerance="10"
   borderopacity="1"
   bordercolor="#666666"
   pagecolor="#ffffff" />
<g
   id="g4">
	<path
   id="path2"
   d="M428.756,300.104c-0.664-3.81-2.334-7.047-4.996-9.713c-5.9-5.903-12.752-7.142-20.554-3.716   c-20.937,9.708-42.641,14.558-65.097,14.558c-28.171,0-54.152-6.94-77.943-20.838c-23.791-13.894-42.631-32.736-56.525-56.53   c-13.899-23.793-20.844-49.773-20.844-77.945c0-21.888,4.333-42.683,12.991-62.384c8.66-19.7,21.176-36.973,37.543-51.82   c6.283-5.898,7.713-12.752,4.287-20.557c-3.236-7.801-9.041-11.511-17.415-11.132c-29.121,1.141-56.72,7.664-82.797,19.556   C111.33,31.478,88.917,47.13,70.168,66.548c-18.747,19.414-33.595,42.399-44.54,68.95c-10.942,26.553-16.416,54.39-16.416,83.511   c0,29.694,5.806,58.054,17.416,85.082c11.613,27.028,27.218,50.344,46.824,69.949c19.604,19.599,42.92,35.207,69.951,46.822   c27.028,11.607,55.384,17.415,85.075,17.415c42.64,0,81.987-11.563,118.054-34.69c36.069-23.124,63.05-54.006,80.944-92.645   C429,307.519,429.427,303.906,428.756,300.104z M306.565,384.168c-24.646,11.711-50.676,17.562-78.087,17.562   c-24.743,0-48.39-4.853-70.947-14.558c-22.554-9.705-41.971-22.695-58.246-38.972c-16.271-16.272-29.259-35.686-38.97-58.241   c-9.707-22.556-14.561-46.203-14.561-70.948c0-40.922,12.135-77.466,36.403-109.636c24.266-32.165,55.531-53.959,93.788-65.379   c-19.795,31.405-29.694,65.379-29.694,101.926c0,34.644,8.564,66.715,25.697,96.223c17.128,29.499,40.446,52.811,69.95,69.948   c29.499,17.129,61.565,25.694,96.211,25.694c10.656,0,21.129-0.855,31.408-2.57C352.199,356.155,331.21,372.472,306.565,384.168z" />
</g>
<g
   id="g6">
</g>
<g
   id="g8">
</g>
<g
   id="g10">
</g>
<g
   id="g12">
</g>
<g
   id="g14">
</g>
<g
   id="g16">
</g>
<g
   id="g18">
</g>
<g
   id="g20">
</g>
<g
   id="g22">
</g>
<g
   id="g24">
</g>
<g
   id="g26">
</g>
<g
   id="g28">
</g>
<g
   id="g30">
</g>
<g
   id="g32">
</g>
<g
   id="g34">
</g>
<path
   id="path43"
   d="M 212.16943,400.81442 C 173.87549,397.25778 135.61894,380.42467 106.07439,354.13195 76.496674,327.80973 54.657952,287.56706 48.339077,247.7419 46.744345,237.69099 46.204963,230.29747 46.214702,218.62228 46.247525,179.27273 57.203964,144.84271 79.695518,113.41062 100.02393,85.001533 126.05338,64.097551 157.50309,50.92416 c 4.98594,-2.088471 16.62811,-6.270495 17.45617,-6.270495 0.11048,0 -0.94908,1.913349 -2.35458,4.251886 -7.71333,12.833775 -14.94893,29.506131 -19.21416,44.273483 -11.86812,41.090526 -9.16568,88.492756 7.23398,126.888146 18.06995,42.3059 48.69452,75.51203 89.1185,96.63093 19.8131,10.35107 40.36759,16.72761 64.38133,19.97278 9.7978,1.32405 38.05976,1.32818 47.43525,0.007 3.51734,-0.49569 6.48933,-0.80708 6.60442,-0.69199 0.38106,0.38105 -9.44268,10.91468 -15.13962,16.23366 -13.08649,12.21826 -26.55086,21.53548 -43.09515,29.82144 -19.15808,9.59502 -36.96163,15.06414 -58.78463,18.05821 -7.11566,0.97625 -31.37227,1.42141 -38.97517,0.71528 z"
   style="fill:#ffffff;stroke-width:0.516227" /></svg>
