<svg height="511pt" viewBox="1 -52 511.99975 511" width="511pt" xmlns="http://www.w3.org/2000/svg"><path d="m510.09375 213.953125c-16.902344-19.132813-36.972656-36.277344-59.648438-50.957031-3.527343-2.28125-8.234374-1.273438-10.515624 2.25-2.285157 3.527344-1.277344 8.234375 2.25 10.515625 19.5 12.625 36.945312 27.144531 51.945312 43.222656-26.429688 28.292969-60.636719 51.84375-99.339844 68.34375-21.289062 9.078125-43.96875 16.003906-67.382812 20.660156 33-22.761719 54.671875-60.828125 54.671875-103.863281 0-22.984375-6.257813-45.34375-17.90625-64.78125 18.195312 5.730469 35.726562 12.925781 52.339843 21.527344 3.726563 1.933594 8.316407.476562 10.246094-3.253906 1.933594-3.726563.476563-8.316407-3.253906-10.25-22.703125-11.757813-47.039062-20.992188-72.40625-27.582032l106.300781-106.304687c2.972657-2.96875 2.972657-7.785157 0-10.753907-2.96875-2.96875-7.785156-2.96875-10.753906 0l-112.976563 112.976563c-25.203124-5.25-51.273437-7.945313-77.664062-7.945313-50.359375 0-100.414062 9.988282-144.753906 28.890626-43.039063 18.347656-80.847656 45.082031-109.339844 77.304687-2.542969 2.875-2.542969 7.195313 0 10.070313 28.492188 32.21875 66.300781 58.949218 109.339844 77.292968 8.703125 3.710938 17.625 7.070313 26.722656 10.085938l-83.371094 83.367187c-2.96875 2.972657-2.96875 7.785157 0 10.753907 1.484375 1.484374 3.433594 2.226562 5.378906 2.226562 1.945313 0 3.890626-.742188 5.375-2.226562l89.097657-89.097657c32.539062 9.070313 66.972656 13.78125 101.550781 13.78125 50.355469 0 100.410156-9.988281 144.75-28.890625 43.042969-18.347656 80.855469-45.074218 109.34375-77.292968 2.539062-2.875 2.542969-7.195313 0-10.070313zm-143.226562-9.828125c0 61.136719-49.738282 110.875-110.867188 110.875-27.085938 0-52.890625-9.992188-72.816406-27.308594l37.230468-37.230468c9.863282 7.589843 22.199219 12.121093 35.582032 12.121093 32.230468 0 58.457031-26.222656 58.457031-58.457031 0-13.378906-4.53125-25.714844-12.121094-35.578125l36.195313-36.199219c.804687.1875 1.605468.375 2.402344.566406 16.730468 19.914063 25.9375 45.097657 25.9375 71.210938zm-154.117188 0c0-23.847656 19.398438-43.246094 43.246094-43.246094 9.183594 0 17.699218 2.882813 24.710937 7.78125l-60.175781 60.175782c-4.898438-7.011719-7.78125-15.527344-7.78125-24.710938zm86.496094 0c0 23.847656-19.402344 43.25-43.25 43.25-9.183594 0-17.699219-2.886719-24.710938-7.785156l60.175782-60.171875c4.898437 7.007812 7.785156 15.527343 7.785156 24.707031zm-182.035156 83.203125c-38.703126-16.496094-72.902344-40.046875-99.332032-68.339844 26.425782-28.296875 60.628906-51.851562 99.332032-68.347656 9.910156-4.226563 20.132812-7.964844 30.578124-11.25-11.625 19.429687-17.871093 41.773437-17.871093 64.734375 0 11.101562 1.445312 22.125 4.304687 32.773438.910156 3.394531 3.980469 5.632812 7.335938 5.632812.65625 0 1.316406-.082031 1.976562-.261719 4.054688-1.089843 6.460938-5.257812 5.375-9.3125-2.515625-9.363281-3.785156-19.0625-3.785156-28.832031 0-26.078125 9.179688-51.230469 25.863281-71.140625 27.488281-6.589844 56.183594-10.019531 85.011719-10.019531 21.914062 0 43.589844 1.9375 64.6875 5.714844l-29.109375 29.113281c-9.863281-7.59375-22.203125-12.125-35.582031-12.125-32.230469 0-58.457032 26.226562-58.457032 58.457031 0 13.382812 4.53125 25.71875 12.125 35.582031l-37.25 37.25c-4.742187-5.425781-8.988281-11.34375-12.648437-17.710937-2.089844-3.644532-6.738281-4.902344-10.378906-2.808594-3.640625 2.089844-4.898438 6.738281-2.808594 10.378906 4.335937 7.546875 9.394531 14.539063 15.0625 20.910156l-11.574219 11.578126c-11.242187-3.449219-22.222656-7.445313-32.855468-11.976563zm55.203124 11.132813c3.882813 3.429687 7.960938 6.613281 12.214844 9.535156-5.964844-1.1875-11.886718-2.519532-17.75-4zm0 0"/></svg>