<?xml version="1.0" standalone="no"?>
<!DOCTYPE svg PUBLIC "-//W3C//DTD SVG 20010904//EN" "http://www.w3.org/TR/2001/REC-SVG-20010904/DTD/svg10.dtd">
<!-- Created using Krita: http://krita.org -->
<svg xmlns="http://www.w3.org/2000/svg" 
    xmlns:xlink="http://www.w3.org/1999/xlink"
    xmlns:krita="http://krita.org/namespaces/svg/krita"
    xmlns:sodipodi="http://sodipodi.sourceforge.net/DTD/sodipodi-0.dtd"
    width="511.2pt"
    height="511.2pt"
    viewBox="0 0 511.2 511.2">
<defs/>
<path id="shape0" transform="matrix(0.998047350906062 0 0 1 -0.99902219365606 52.4999995)" fill="#cccbca" d="M510.095 213.453C493.192 194.32 473.122 177.176 450.446 162.496C446.919 160.215 442.212 161.223 439.931 164.746C437.646 168.273 438.653 172.98 442.181 175.262C461.681 187.887 479.126 202.406 494.126 218.484C467.696 246.777 433.489 270.328 394.786 286.828C373.497 295.906 350.817 302.832 327.403 307.488C360.403 284.727 382.075 246.66 382.075 203.625C382.075 180.641 375.817 158.281 364.169 138.844C382.364 144.574 399.896 151.77 416.509 160.371C420.235 162.305 424.825 160.848 426.755 157.117C428.688 153.391 427.231 148.801 423.501 146.867C400.798 135.109 376.462 125.875 351.095 119.285L457.396 12.9805C460.368 10.0117 460.368 5.19531 457.396 2.22656C454.427 -0.742188 449.61 -0.742188 446.642 2.22656L333.665 115.203C308.462 109.953 282.392 107.258 256.001 107.258C205.642 107.258 155.587 117.246 111.247 136.148C68.208 154.496 30.3994 181.23 1.90723 213.453C-0.635742 216.328 -0.635742 220.648 1.90723 223.523C30.3994 255.742 68.208 282.473 111.247 300.816C119.95 304.527 128.872 307.887 137.97 310.902L54.5986 394.27C51.6299 397.242 51.6299 402.055 54.5986 405.023C56.083 406.508 58.0322 407.25 59.9775 407.25C61.9229 407.25 63.8682 406.508 65.3525 405.023L154.45 315.926C186.989 324.996 221.423 329.707 256.001 329.707C306.356 329.707 356.411 319.719 400.751 300.816C443.794 282.469 481.606 255.742 510.095 223.523C512.634 220.648 512.638 216.328 510.095 213.453ZM366.868 203.625C366.868 264.762 317.13 314.5 256.001 314.5C228.915 314.5 203.11 304.508 183.185 287.191L220.415 249.961C230.278 257.551 242.614 262.082 255.997 262.082C288.228 262.082 314.454 235.859 314.454 203.625C314.454 190.246 309.923 177.91 302.333 168.047L338.528 131.848C339.333 132.035 340.134 132.223 340.931 132.414C357.661 152.328 366.868 177.512 366.868 203.625ZM212.751 203.625C212.751 179.777 232.149 160.379 255.997 160.379C265.181 160.379 273.696 163.262 280.708 168.16L220.532 228.336C215.634 221.324 212.751 212.809 212.751 203.625ZM299.247 203.625C299.247 227.473 279.845 246.875 255.997 246.875C246.813 246.875 238.298 243.988 231.286 239.09L291.462 178.918C296.36 185.926 299.247 194.445 299.247 203.625ZM117.212 286.828C78.5088 270.332 44.3096 246.781 17.8799 218.488C44.3057 190.191 78.5088 166.637 117.212 150.141C127.122 145.914 137.345 142.176 147.79 138.891C136.165 158.32 129.919 180.664 129.919 203.625C129.919 214.727 131.364 225.75 134.224 236.398C135.134 239.793 138.204 242.031 141.56 242.031C142.216 242.031 142.876 241.949 143.536 241.77C147.591 240.68 149.997 236.512 148.911 232.457C146.396 223.094 145.126 213.395 145.126 203.625C145.126 177.547 154.306 152.395 170.989 132.484C198.478 125.895 227.173 122.465 256.001 122.465C277.915 122.465 299.591 124.402 320.688 128.18L291.579 157.293C281.716 149.699 269.376 145.168 255.997 145.168C223.767 145.168 197.54 171.395 197.54 203.625C197.54 217.008 202.071 229.344 209.665 239.207L172.415 276.457C167.673 271.031 163.427 265.113 159.767 258.746C157.677 255.102 153.028 253.844 149.388 255.938C145.747 258.027 144.489 262.676 146.579 266.316C150.915 273.863 155.974 280.855 161.642 287.227L150.067 298.805C138.825 295.355 127.845 291.359 117.212 286.828ZM172.415 297.961C176.298 301.391 180.376 304.574 184.63 307.496C178.665 306.309 172.743 304.977 166.88 303.496ZM172.415 297.961"/>
</svg>
