<?xml version="1.0" standalone="no"?>
<!DOCTYPE svg PUBLIC "-//W3C//DTD SVG 20010904//EN" "http://www.w3.org/TR/2001/REC-SVG-20010904/DTD/svg10.dtd">
<!-- Created using Krita: http://krita.org -->
<svg xmlns="http://www.w3.org/2000/svg" 
    xmlns:xlink="http://www.w3.org/1999/xlink"
    xmlns:krita="http://krita.org/namespaces/svg/krita"
    xmlns:sodipodi="http://sodipodi.sourceforge.net/DTD/sodipodi-0.dtd"
    width="511.2pt"
    height="511.2pt"
    viewBox="0 0 511.2 511.2">
<defs/>
<path id="shape0" transform="matrix(0.998047350906062 0 0 1 6.58867146594213 167.363281)" fill="#e3f4fc" d="M248.395 0C146.059 0 55.4805 40.875 0 103.621C55.4805 166.367 146.059 207.238 248.395 207.238C350.73 207.238 441.313 166.363 496.793 103.621C441.313 40.875 350.73 0 248.395 0ZM248.395 0"/><path id="shape1" transform="matrix(0.998047350906062 0 0 1 6.59257083694212 167.363281)" fill="#bdd9e5" d="M496.789 103.629C496.598 103.852 496.395 104.074 496.191 104.285C433.352 64.6758 345.562 40.0703 248.395 40.0703C151.227 40.0703 63.4258 64.6758 0.597656 104.285C0.394531 104.074 0.191406 103.852 0 103.629C55.4766 40.8789 146.055 0 248.395 0C350.723 0 441.312 40.8789 496.789 103.629ZM496.789 103.629"/><path id="shape2" transform="matrix(0.998047350906062 0 0 1 136.249057888535 167.363281)" fill="#34abe0" d="M236.949 88.7617C236.949 154.195 183.906 207.242 118.48 207.242C53.0469 207.242 0 154.195 0 88.7617C0 58.8711 11.0625 31.5781 29.3125 10.7461L29.3203 10.7344C57.5273 3.75 87.4688 0 118.48 0C149.496 0 179.426 3.75 207.621 10.7344C225.891 31.5703 236.949 58.8711 236.949 88.7617ZM236.949 88.7617"/><path id="shape3" transform="matrix(0.998047350906062 0 0 1 142.194456897351 167.363281)" fill="#1895b7" d="M23.3516 10.7461C13.0352 22.5234 5.01953 36.3594 0 51.5625C35.2734 44.1133 73.1289 40.0664 112.523 40.0664C151.914 40.0664 189.762 44.1133 225.031 51.5625C220.008 36.3555 211.988 22.5156 201.664 10.7383C173.461 3.76172 143.531 0 112.523 0C81.5 0 51.5625 3.76172 23.3516 10.7461ZM23.3516 10.7461"/><path id="shape4" transform="matrix(0.998047350906062 0 0 1 203.745908366511 205.273438)" fill="#3b3d4c" d="M101.703 50.8516C101.703 78.9375 78.9375 101.703 50.8516 101.703C22.7656 101.703 0 78.9375 0 50.8516C0 22.7695 22.7656 0 50.8516 0C78.9375 0 101.703 22.7695 101.703 50.8516ZM101.703 50.8516"/><path id="shape5" transform="matrix(0.998047350906062 0 0 1 -0.99902219365606 52.4999995)" fill="#aeaea8" d="M510.095 213.453C493.192 194.32 473.122 177.176 450.446 162.496C446.919 160.215 442.212 161.223 439.931 164.746C437.646 168.273 438.653 172.98 442.181 175.262C461.681 187.887 479.126 202.406 494.126 218.484C467.696 246.777 433.489 270.328 394.786 286.828C373.497 295.906 350.817 302.832 327.403 307.488C360.403 284.727 382.075 246.66 382.075 203.625C382.075 180.641 375.817 158.281 364.169 138.844C382.364 144.574 399.896 151.77 416.509 160.371C420.235 162.305 424.825 160.848 426.755 157.117C428.688 153.391 427.231 148.801 423.501 146.867C400.798 135.109 376.462 125.875 351.095 119.285L457.396 12.9805C460.368 10.0117 460.368 5.19531 457.396 2.22656C454.427 -0.742188 449.61 -0.742188 446.642 2.22656L333.665 115.203C308.462 109.953 282.392 107.258 256.001 107.258C205.642 107.258 155.587 117.246 111.247 136.148C68.208 154.496 30.3994 181.23 1.90723 213.453C-0.635742 216.328 -0.635742 220.648 1.90723 223.523C30.3994 255.742 68.208 282.473 111.247 300.816C119.95 304.527 128.872 307.887 137.97 310.902L54.5986 394.27C51.6299 397.242 51.6299 402.055 54.5986 405.023C56.083 406.508 58.0322 407.25 59.9775 407.25C61.9229 407.25 63.8682 406.508 65.3525 405.023L154.45 315.926C186.989 324.996 221.423 329.707 256.001 329.707C306.356 329.707 356.411 319.719 400.751 300.816C443.794 282.469 481.606 255.742 510.095 223.523C512.634 220.648 512.638 216.328 510.095 213.453ZM366.868 203.625C366.868 264.762 317.13 314.5 256.001 314.5C228.915 314.5 203.11 304.508 183.185 287.191L220.415 249.961C230.278 257.551 242.614 262.082 255.997 262.082C288.228 262.082 314.454 235.859 314.454 203.625C314.454 190.246 309.923 177.91 302.333 168.047L338.528 131.848C339.333 132.035 340.134 132.223 340.931 132.414C357.661 152.328 366.868 177.512 366.868 203.625ZM212.751 203.625C212.751 179.777 232.149 160.379 255.997 160.379C265.181 160.379 273.696 163.262 280.708 168.16L220.532 228.336C215.634 221.324 212.751 212.809 212.751 203.625ZM299.247 203.625C299.247 227.473 279.845 246.875 255.997 246.875C246.813 246.875 238.298 243.988 231.286 239.09L291.462 178.918C296.36 185.926 299.247 194.445 299.247 203.625ZM117.212 286.828C78.5088 270.332 44.3096 246.781 17.8799 218.488C44.3057 190.191 78.5088 166.637 117.212 150.141C127.122 145.914 137.345 142.176 147.79 138.891C136.165 158.32 129.919 180.664 129.919 203.625C129.919 214.727 131.364 225.75 134.224 236.398C135.134 239.793 138.204 242.031 141.56 242.031C142.216 242.031 142.876 241.949 143.536 241.77C147.591 240.68 149.997 236.512 148.911 232.457C146.396 223.094 145.126 213.395 145.126 203.625C145.126 177.547 154.306 152.395 170.989 132.484C198.478 125.895 227.173 122.465 256.001 122.465C277.915 122.465 299.591 124.402 320.688 128.18L291.579 157.293C281.716 149.699 269.376 145.168 255.997 145.168C223.767 145.168 197.54 171.395 197.54 203.625C197.54 217.008 202.071 229.344 209.665 239.207L172.415 276.457C167.673 271.031 163.427 265.113 159.767 258.746C157.677 255.102 153.028 253.844 149.388 255.938C145.747 258.027 144.489 262.676 146.579 266.316C150.915 273.863 155.974 280.855 161.642 287.227L150.067 298.805C138.825 295.355 127.845 291.359 117.212 286.828ZM172.415 297.961C176.298 301.391 180.376 304.574 184.63 307.496C178.665 306.309 172.743 304.977 166.88 303.496ZM172.415 297.961"/>
</svg>
