<?xml version="1.0" encoding="UTF-8" standalone="no"?>
<svg
   xmlns:dc="http://purl.org/dc/elements/1.1/"
   xmlns:cc="http://creativecommons.org/ns#"
   xmlns:rdf="http://www.w3.org/1999/02/22-rdf-syntax-ns#"
   xmlns:svg="http://www.w3.org/2000/svg"
   xmlns="http://www.w3.org/2000/svg"
   xmlns:sodipodi="http://sodipodi.sourceforge.net/DTD/sodipodi-0.dtd"
   xmlns:inkscape="http://www.inkscape.org/namespaces/inkscape"
   inkscape:version="1.0 (4035a4fb49, 2020-05-01)"
   sodipodi:docname="25665new2.svg"
   xml:space="preserve"
   style="enable-background:new 0 0 438.277 438.277;"
   viewBox="0 0 438.277 438.277"
   height="438.277px"
   width="438.277px"
   y="0px"
   x="0px"
   id="Capa_1"
   version="1.1"><metadata
   id="metadata126"><rdf:RDF><cc:Work
       rdf:about=""><dc:format>image/svg+xml</dc:format><dc:type
         rdf:resource="http://purl.org/dc/dcmitype/StillImage" /><dc:title></dc:title></cc:Work></rdf:RDF></metadata><defs
   id="defs124" /><sodipodi:namedview
   inkscape:current-layer="Capa_1"
   inkscape:window-maximized="1"
   inkscape:window-y="0"
   inkscape:window-x="0"
   inkscape:cy="219.1385"
   inkscape:cx="219.1385"
   inkscape:zoom="1.8709628"
   showgrid="false"
   id="namedview122"
   inkscape:window-height="1011"
   inkscape:window-width="1920"
   inkscape:pageshadow="2"
   inkscape:pageopacity="0"
   guidetolerance="10"
   gridtolerance="10"
   objecttolerance="10"
   borderopacity="1"
   bordercolor="#666666"
   pagecolor="#ffffff" />
<g
   id="g89">
	<path
   id="path87"
   d="M428.756,300.104c-0.664-3.81-2.334-7.047-4.996-9.713c-5.9-5.903-12.752-7.142-20.554-3.716   c-20.937,9.708-42.641,14.558-65.097,14.558c-28.171,0-54.152-6.94-77.943-20.838c-23.791-13.894-42.631-32.736-56.525-56.53   c-13.899-23.793-20.844-49.773-20.844-77.945c0-21.888,4.333-42.683,12.991-62.384c8.66-19.7,21.176-36.973,37.543-51.82   c6.283-5.898,7.713-12.752,4.287-20.557c-3.236-7.801-9.041-11.511-17.415-11.132c-29.121,1.141-56.72,7.664-82.797,19.556   C111.33,31.478,88.917,47.13,70.168,66.548c-18.747,19.414-33.595,42.399-44.54,68.95c-10.942,26.553-16.416,54.39-16.416,83.511   c0,29.694,5.806,58.054,17.416,85.082c11.613,27.028,27.218,50.344,46.824,69.949c19.604,19.599,42.92,35.207,69.951,46.822   c27.028,11.607,55.384,17.415,85.075,17.415c42.64,0,81.987-11.563,118.054-34.69c36.069-23.124,63.05-54.006,80.944-92.645   C429,307.519,429.427,303.906,428.756,300.104z M306.565,384.168c-24.646,11.711-50.676,17.562-78.087,17.562   c-24.743,0-48.39-4.853-70.947-14.558c-22.554-9.705-41.971-22.695-58.246-38.972c-16.271-16.272-29.259-35.686-38.97-58.241   c-9.707-22.556-14.561-46.203-14.561-70.948c0-40.922,12.135-77.466,36.403-109.636c24.266-32.165,55.531-53.959,93.788-65.379   c-19.795,31.405-29.694,65.379-29.694,101.926c0,34.644,8.564,66.715,25.697,96.223c17.128,29.499,40.446,52.811,69.95,69.948   c29.499,17.129,61.565,25.694,96.211,25.694c10.656,0,21.129-0.855,31.408-2.57C352.199,356.155,331.21,372.472,306.565,384.168z" />
</g>
<g
   id="g91">
</g>
<g
   id="g93">
</g>
<g
   id="g95">
</g>
<g
   id="g97">
</g>
<g
   id="g99">
</g>
<g
   id="g101">
</g>
<g
   id="g103">
</g>
<g
   id="g105">
</g>
<g
   id="g107">
</g>
<g
   id="g109">
</g>
<g
   id="g111">
</g>
<g
   id="g113">
</g>
<g
   id="g115">
</g>
<g
   id="g117">
</g>
<g
   id="g119">
</g>
<path
   id="path128"
   d="M 212.45745,400.82726 C 175.75819,397.41705 139.28737,382.09583 110.63996,358.05421 79.100639,331.58562 56.463884,292.35996 48.979783,251.20755 c -2.225164,-12.23538 -2.721857,-18.22046 -2.705724,-32.60353 0.01702,-15.17348 0.830291,-23.85055 3.459225,-36.90772 5.592921,-27.77845 17.276607,-52.47064 36.318665,-76.75553 5.852454,-7.463796 21.054511,-22.735045 28.594901,-28.725046 12.01524,-9.544767 25.65213,-17.78606 39.3396,-23.774419 7.75335,-3.39214 20.11602,-7.862165 20.54841,-7.429778 0.14712,0.147129 -0.67558,1.819845 -1.82823,3.717147 -31.65837,52.110726 -35.41174,120.687406 -9.67409,176.751996 18.61608,40.55159 49.52851,72.60725 89.23076,92.53077 18.96789,9.51853 38.69477,15.51857 60.94442,18.53657 9.85221,1.33638 40.64745,1.36552 49.16333,0.0465 3.08158,-0.4773 5.69956,-0.77114 5.81772,-0.65298 0.66701,0.66701 -15.85778,17.29835 -23.44649,23.59768 -20.12348,16.70431 -46.49196,30.07359 -71.88812,36.44853 -6.08345,1.52706 -14.50962,3.12083 -21.64661,4.09433 -7.38434,1.00724 -31.03526,1.46205 -38.7501,0.74516 z"
   style="fill:#ffffff;stroke-width:0.534484" /></svg>
