<svg height="512pt" viewBox="0 0 512 512" width="512pt" xmlns="http://www.w3.org/2000/svg"><path d="m494.761719 213.882812-40.53125-40.535156v-57.277344c0-32.449218-26.410157-58.882812-58.882813-58.882812h-57.277344l-40.535156-40.53125c-22.207031-22.207031-60.882812-22.207031-83.09375 0l-40.53125 40.53125h-57.257812c-32.449219 0-58.882813 26.414062-58.882813 58.882812v57.277344l-40.53125 40.535156c-11.117187 11.09375-17.238281 25.878907-17.238281 41.535157 0 15.660156 6.121094 30.445312 17.238281 41.535156l40.53125 40.535156v57.28125c0 32.445313 26.410157 58.878907 58.882813 58.878907h57.277344l40.535156 40.53125c11.09375 11.117187 25.875 17.238281 41.535156 17.238281s30.441406-6.121094 41.535156-17.238281l40.535156-40.53125h57.277344c32.449219 0 58.882813-26.410157 58.882813-58.878907v-57.28125l40.53125-40.535156c11.117187-11.089844 17.238281-25.875 17.238281-41.535156 0-15.65625-6.121094-30.441407-17.238281-41.535157zm0 0" fill="#00bcd4"/><path d="m304.46875 344.421875c-33.75-13.183594-69.800781-43.476563-69.800781-89.003906 0-45.523438 36.050781-75.816407 69.800781-89.003907 6.101562-2.367187 10.15625-8.253906 10.199219-14.804687.042969-6.546875-3.949219-12.480469-10.027344-14.910156-15.253906-6.164063-31.59375-9.28125-48.640625-9.28125-74.175781 0-128 53.824219-128 128s53.824219 128 128 128c17.046875 0 33.386719-3.113281 48.640625-9.28125 6.078125-2.429688 10.070313-8.359375 10.027344-14.910157-.042969-6.550781-4.074219-12.4375-10.199219-14.804687zm0 0" fill="#fafafa"/></svg>